<?xml version="1.0" standalone="no"?>
<!DOCTYPE svg PUBLIC "-//W3C//DTD SVG 20010904//EN"
 "http://www.w3.org/TR/2001/REC-SVG-20010904/DTD/svg10.dtd">
<svg version="1.0" xmlns="http://www.w3.org/2000/svg"
 width="160.000000pt" height="100.000000pt" viewBox="0 0 160.000000 100.000000"
 preserveAspectRatio="xMidYMid meet">

<g transform="translate(0.000000,100.000000) scale(0.100000,-0.100000)"
fill="#000000" stroke="none">
<path d="M190 500 l0 -500 310 0 310 0 2 477 3 476 285 -473 c157 -261 291
-475 298 -478 9 -3 12 110 12 497 0 324 -3 501 -10 501 -6 0 -11 -171 -12
-477 l-3 -478 -286 475 -287 475 -311 3 -311 2 0 -500z m581 462 c-6 -11 -68
-114 -140 -231 l-129 -212 -127 208 c-71 114 -134 218 -143 231 l-14 22 281 0
c271 0 281 -1 272 -18z m17 -676 l-3 -225 -130 211 c-71 116 -130 219 -130
229 0 9 59 114 130 231 l130 214 3 -217 c1 -120 1 -319 0 -443z m-448 454 c62
-102 120 -195 128 -207 l14 -23 -136 0 -136 0 0 217 c0 119 4 213 8 208 5 -6
60 -93 122 -195z m140 -254 c0 -4 -258 -427 -265 -434 -3 -3 -5 94 -5 216 l0
222 135 0 c74 0 135 -2 135 -4z m161 -238 l135 -223 -138 -3 c-76 -1 -200 -1
-276 0 l-138 3 135 223 c75 122 138 222 141 222 3 0 66 -100 141 -222z"/>
</g>
</svg>
